<?xml version="1.0" encoding="UTF-8"?>
<svg version="1.1" id="rakuten-recipe-logo" xmlns="http://www.w3.org/2000/svg" xmlns:xlink="http://www.w3.org/1999/xlink" x="0px" y="0px"
	 viewBox="0 0 226.3 41.1" style="enable-background:new 0 0 226.3 41.1;" xml:space="preserve">
<style type="text/css">
	.rakuten-recipe{fill:#F59600;}
</style>
<path class="rakuten-recipe" d="M146.7,6.1c0-0.6,0-2.2,2.3-2.2c2.4,0,2.4,1.5,2.4,2.2v17.7c0,0.3,0,0.9,0.8,0.9c0,0,6.5-1.1,11.1-5.8
	c1.4-1.5,1.6-1.8,3.3-4.8c0.2-0.3,0.3-0.6,0.9-0.6c0.7,0,1.1,0.6,1.1,1c0,0.3-1.4,4.9-5.4,8.8c-5.2,5.1-12.5,6.8-13.9,6.8
	c-1.7,0-2.7-1.2-2.7-2.6V6.1z"/>
<path class="rakuten-recipe" d="M178.6,16.2c-1.5-1-3.1-2.1-4.7-2.7c-0.9-0.3-1.3-0.5-1.3-1.3c0-0.3,0.1-1,1.2-1c0,0,2.8,0.3,5.4,1.1
	c2.6,0.9,3.9,1.2,3.9,2.8c0,1.3-1.1,2.3-2.2,2.3C180.3,17.5,180.1,17.3,178.6,16.2z M177,25.1c7.4-0.9,14-4.5,19-12.3
	c1.1-1.7,1.2-1.9,1.8-1.9c0.6,0,1.1,0.5,1.1,1c0,0.3-2.7,7.1-8.2,11.7c-6.1,5.2-13.8,6.4-14,6.4c-2.1,0-2.3-2.3-2.3-2.5
	C174.3,25.5,175.5,25.3,177,25.1z M181.7,9c-2.1-2.1-3.1-2.7-4.1-3.2c-0.8-0.4-0.8-0.8-0.8-1.1c0-0.5,0.4-1.1,1.1-1.1
	c0.7,0,4.7,1.6,5.3,1.9c2.7,1.2,3.1,1.9,3.1,2.7c0,1.3-1.1,2.4-2.2,2.4C183.3,10.7,183.2,10.5,181.7,9z"/>
<path class="rakuten-recipe" d="M223.3,27.1c-0.3,0-2,0.3-2.3,0.4c-2.4,0.3-3.7,0.4-6.4,0.4c-5.9,0-7.2,0-7.2-3v-7.9c1.9-0.2,6.5-0.8,10.8-2
	c4.3-1.2,5.1-1.4,5.1-2.7c0-1-0.9-2.2-2.2-2.2c-0.6,0-0.9,0.2-2.2,0.9c-3.7,2-7.2,3.1-11.4,3.8V6.3c0-0.7,0-2.2-2.3-2.2
	c-2.3,0-2.3,1.6-2.3,2.2v18.1c0,5.5,2.2,5.5,13.9,5.5c4.2,0,5.2-0.2,6-0.2c0.8-0.1,1.9-0.2,1.9-1.3
	C224.4,27.5,223.8,27.1,223.3,27.1z"/>
<path class="rakuten-recipe" d="M223.1,2.5c-1.8,0-3.2,1.4-3.2,3.2c0,1.7,1.4,3.2,3.2,3.2c1.8,0,3.2-1.5,3.2-3.2C226.3,4,224.9,2.5,223.1,2.5z
	 M223.1,7.3c-0.9,0-1.6-0.7-1.6-1.5c0-0.9,0.7-1.6,1.6-1.6c0.9,0,1.5,0.7,1.5,1.6C224.6,6.5,224,7.3,223.1,7.3z"/>
<polygon class="rakuten-recipe" points="111.3,34.5 27.6,34.5 34.3,41.1 "/>
<path class="rakuten-recipe" d="M35.4,7.5v1c-1.6-1-2.9-1.6-4.9-1.6c-5.9,0-10.3,5.3-10.3,11.9c0,6.6,4.5,11.9,10.3,11.9c1.9,0,3.3-0.6,4.9-1.6
	v1h5.1V7.5H35.4z M30.5,25.3c-2.9,0-5-2.8-5-6.4c0-3.6,2.1-6.4,5-6.4c2.9,0,4.9,2.8,4.9,6.4C35.5,22.5,33.4,25.3,30.5,25.3z"/>
<path class="rakuten-recipe" d="M76.6,7.5v13.3c0,2.5-1.7,4.6-4.2,4.6c-2.5,0-4.2-2.1-4.2-4.6V7.5h-5.2v13.3c0,5.5,3.7,9.9,9.2,9.9
	c2.5,0,4.4-1.4,4.4-1.4v0.8h5.2V7.5H76.6z"/>
<path class="rakuten-recipe" d="M124.6,30.2V16.9c0-2.5,1.7-4.6,4.2-4.6c2.5,0,4.2,2.1,4.2,4.6v13.3h5.2V16.9c0-5.5-3.7-9.9-9.2-9.9
	c-2.5,0-4.4,1.4-4.4,1.4V7.5h-5.2v22.7H124.6z"/>
<path class="rakuten-recipe" d="M5.4,30.2v-8.8h3.8l6.6,8.8h6.7l-8-10.6c2.5-1.8,4.1-4.7,4.1-8c0-5.4-4.4-9.8-9.8-9.8H0v28.3H5.4z M5.4,7.3h3.5
	c2.4,0,4.4,2,4.4,4.4c0,2.4-2,4.4-4.4,4.4H5.4V7.3z"/>
<path class="rakuten-recipe" d="M95.7,24.9c-0.5,0.3-1,0.6-1.7,0.6c-0.8,0-2.4-0.6-2.4-2.8v-9.7h4.4V7.5h-4.4l0-5.7h-5.2l0,5.7h-2.7v5.4h2.7
	v9.8c0,5.1,3.8,8.1,7.7,8.1c1.4,0,3.4-0.5,5-1.4L95.7,24.9z"/>
<polygon class="rakuten-recipe" points="53.3,18.2 62.2,7.5 55,7.5 48.8,15.4 48.8,0 43.5,0 43.5,30.2 48.8,30.2 48.8,20.9 56.4,30.2 
	63.6,30.2 "/>
<path class="rakuten-recipe" d="M107.6,7c-6,0-10.2,5.2-10.2,11.9c0,7,5.4,11.9,10.7,11.9c2.7,0,6.2-0.9,9.1-5.1l-4.5-2.6
	c-3.5,5.2-9.4,2.6-10.1-2.6l14.8,0C118.7,12.3,113.4,7,107.6,7z M112.1,15.9h-9.3C103.9,10.6,111.1,10.3,112.1,15.9z"/>
</svg>