<?xml version="1.0" encoding="UTF-8"?>
<svg version="1.1" id="logo" xmlns="http://www.w3.org/2000/svg" xmlns:xlink="http://www.w3.org/1999/xlink" x="0px" y="0px"
	 viewBox="0 0 250.8 41.1" style="enable-background:new 0 0 250.8 41.1;" xml:space="preserve">
<style type="text/css">
	.st0{fill:#BF0000;}
</style>
<path class="st0" d="M165.2,6.5l3.9,4.5c-1,5.6-3.6,14.7-15.2,20l-2.8-3.5c11.4-4.7,13-13.6,13.6-16.9h-18.3V6.5H165.2z M167.2,2.3
	c1.5,1.7,2.5,3.4,3.7,5.7l-2.1,1.5c-1.1-2.4-2-3.8-3.5-5.8L167.2,2.3z M171.7,1.4c1.4,1.8,2.3,3.3,3.5,5.8l-2.2,1.4
	c-1.1-2.5-1.8-3.7-3.4-5.9L171.7,1.4z"/>
<path class="st0" d="M176.8,10.8c1,1.5,2.3,3.5,3.7,6.7l-3.2,1.7c-1-2.3-2-4.1-3.7-6.6L176.8,10.8z M195.3,11.1
	c-1.2,9-4.9,16.7-15.5,20.2l-2.8-3c10-3,13.5-9.2,14.5-17.9L195.3,11.1z M183.3,9.4c1.4,2.2,2.5,4.2,3.5,6.8l-3.2,1.6
	c-1.1-2.7-1.9-4.3-3.5-6.8L183.3,9.4z"/>
<path class="st0" d="M201.1,27.8c7.7-2.6,14.6-8.4,16.5-18.5h-9.7c-1.1,1.9-3.1,4.9-7.6,8.6l-3.2-2.8c2.4-2,5.6-4.9,8.1-9.8h17.5
	c-1.9,16.6-11.1,23-18.8,26L201.1,27.8z"/>
<path class="st0" d="M223.5,27.2c6.3-2.8,13.6-7.5,17.5-17.4h-15.3V5.7H247c-0.9,3.5-2.4,7.6-5.5,12.2c4.9,4,8.2,8.3,9.2,9.6
	l-3.4,2.8c-1.4-1.8-4-5.3-8.4-9.1c-2.3,2.5-6.1,6.5-12.9,9.5L223.5,27.2z"/>
<polygon class="st0" points="111.3,34.5 27.6,34.5 34.3,41.1 "/>
<path class="st0" d="M35.4,7.5v1c-1.6-1-2.9-1.6-4.9-1.6c-5.9,0-10.3,5.3-10.3,11.9c0,6.6,4.5,11.9,10.3,11.9c1.9,0,3.3-0.6,4.9-1.6
	v1h5.1V7.5H35.4z M30.5,25.3c-2.9,0-5-2.8-5-6.4c0-3.6,2.1-6.4,5-6.4c2.9,0,4.9,2.8,4.9,6.4C35.5,22.5,33.4,25.3,30.5,25.3z"/>
<path class="st0" d="M76.6,7.5v13.3c0,2.5-1.7,4.6-4.2,4.6c-2.5,0-4.2-2.1-4.2-4.6V7.5h-5.2v13.3c0,5.5,3.7,9.9,9.2,9.9
	c2.5,0,4.4-1.4,4.4-1.4v0.8h5.2V7.5H76.6z"/>
<path class="st0" d="M124.6,30.2V16.9c0-2.5,1.7-4.6,4.2-4.6c2.5,0,4.2,2.1,4.2,4.6v13.3h5.2V16.9c0-5.5-3.7-9.9-9.2-9.9
	c-2.5,0-4.4,1.4-4.4,1.4V7.5h-5.2v22.7H124.6z"/>
<path class="st0" d="M5.4,30.2v-8.8h3.8l6.6,8.8h6.7l-8-10.6c2.5-1.8,4.1-4.7,4.1-8c0-5.4-4.4-9.8-9.8-9.8H0v28.3H5.4z M5.4,7.3h3.5
	c2.4,0,4.4,2,4.4,4.4c0,2.4-2,4.4-4.4,4.4H5.4V7.3z"/>
<path class="st0" d="M95.7,24.9c-0.5,0.3-1,0.6-1.7,0.6c-0.8,0-2.4-0.6-2.4-2.8v-9.7h4.4V7.5h-4.4l0-5.7h-5.2l0,5.7h-2.7v5.4h2.7
	v9.8c0,5.1,3.8,8.1,7.7,8.1c1.4,0,3.4-0.5,5-1.4L95.7,24.9z"/>
<polygon class="st0" points="53.3,18.2 62.2,7.5 55,7.5 48.8,15.4 48.8,0 43.5,0 43.5,30.2 48.8,30.2 48.8,20.9 56.4,30.2 
	63.6,30.2 "/>
<path class="st0" d="M107.6,7c-6,0-10.2,5.2-10.2,11.9c0,7,5.4,11.9,10.7,11.9c2.7,0,6.2-0.9,9.1-5.1l-4.5-2.6
	c-3.5,5.2-9.4,2.6-10.1-2.6l14.8,0C118.7,12.3,113.4,7,107.6,7z M112.1,15.9h-9.3C103.9,10.6,111.1,10.3,112.1,15.9z"/>
</svg>